<svg id="Capa_1" enable-background="new 0 0 512 512" height="512" viewBox="0 0 512 512" width="512"
     xmlns="http://www.w3.org/2000/svg" xmlns:xlink="http://www.w3.org/1999/xlink">
    <linearGradient id="lg1">
        <stop offset="0" stop-color="#0072ff"/>
        <stop offset=".2462" stop-color="#279cf6"/>
        <stop offset=".5952" stop-color="#5ad1ea"/>
        <stop offset=".8572" stop-color="#79f2e3"/>
        <stop offset="1" stop-color="#85ffe0"/>
    </linearGradient>
    <linearGradient id="SVGID_1_" gradientUnits="userSpaceOnUse" x1="74.982" x2="437.019" xlink:href="#lg1" y1="437.02"
                    y2="74.981"/>
    <radialGradient id="SVGID_2_" cx="256" cy="256" gradientUnits="userSpaceOnUse" r="258.6">
        <stop offset="0" stop-color="#0056e0" stop-opacity=".7"/>
        <stop offset="1" stop-color="#00e5a1" stop-opacity="0"/>
    </radialGradient>
    <linearGradient id="SVGID_3_" gradientUnits="userSpaceOnUse" x1="88.816" x2="458.001" xlink:href="#lg1" y1="423.183"
                    y2="53.998"/>
    <linearGradient id="SVGID_4_" gradientUnits="userSpaceOnUse" x1="255.995" x2="255.995" y1="353.88" y2="13.294">
        <stop offset="0" stop-color="#0056e0" stop-opacity=".7"/>
        <stop offset=".0843" stop-color="#0074d3" stop-opacity=".641"/>
        <stop offset=".2017" stop-color="#0097c3" stop-opacity=".559"/>
        <stop offset=".3268" stop-color="#00b3b7" stop-opacity=".471"/>
        <stop offset=".4598" stop-color="#00caad" stop-opacity=".378"/>
        <stop offset=".6046" stop-color="#00d9a6" stop-opacity=".277"/>
        <stop offset=".7697" stop-color="#00e3a2" stop-opacity=".161"/>
        <stop offset="1" stop-color="#00e5a1" stop-opacity="0"/>
    </linearGradient>
    <linearGradient id="lg2">
        <stop offset="0" stop-color="#00e5a1"/>
        <stop offset=".5" stop-color="#85ffe0"/>
        <stop offset=".6348" stop-color="#89ffe1"/>
        <stop offset=".7585" stop-color="#94ffe4"/>
        <stop offset=".8777" stop-color="#a6ffe9"/>
        <stop offset=".9937" stop-color="#c0fff0"/>
        <stop offset="1" stop-color="#c2fff0"/>
    </linearGradient>
    <linearGradient id="SVGID_5_" gradientUnits="userSpaceOnUse" x1="-77.775" x2="605.295" xlink:href="#lg2"
                    y1="564.076" y2="-118.994"/>
    <linearGradient id="SVGID_6_" gradientTransform="matrix(1 0 0 -1 0 -1756)" gradientUnits="userSpaceOnUse"
                    x1="-46.111" x2="544.932" xlink:href="#lg2" y1="-2093.286" y2="-1502.244"/>
    <linearGradient id="lg3">
        <stop offset="0" stop-color="#85ffe0"/>
        <stop offset="1" stop-color="#fff"/>
    </linearGradient>
    <linearGradient id="SVGID_7_" gradientTransform="matrix(-1 0 0 -1 242.5 -1756)" gradientUnits="userSpaceOnUse"
                    x1="163.688" x2="-374.867" xlink:href="#lg3" y1="-2230.573" y2="-1692.019"/>
    <linearGradient id="SVGID_8_" gradientTransform="matrix(-1 0 0 1 242.5 0)" gradientUnits="userSpaceOnUse"
                    x1="58.607" x2="-387.346" xlink:href="#lg3" y1="564.559" y2="118.605"/>
    <linearGradient id="SVGID_9_" gradientUnits="userSpaceOnUse" x1="249.161" x2="688.012" xlink:href="#lg3" y1="374.03"
                    y2="-64.821"/>
    <linearGradient id="SVGID_10_" gradientUnits="userSpaceOnUse" x1="229.83" x2="658.903" xlink:href="#lg3"
                    y1="209.351" y2="-219.722"/>
    <linearGradient id="SVGID_11_" gradientUnits="userSpaceOnUse" x1="57.159" x2="511.69" xlink:href="#lg3" y1="320.349"
                    y2="-134.183"/>
    <linearGradient id="SVGID_12_" gradientUnits="userSpaceOnUse" x1="11.719" x2="642.531" xlink:href="#lg3" y1="566.19"
                    y2="-64.622"/>
    <linearGradient id="SVGID_13_" gradientUnits="userSpaceOnUse" x1="-138.376" x2="485.786" xlink:href="#lg3"
                    y1="531.304" y2="-92.858"/>
    <linearGradient id="SVGID_14_" gradientUnits="userSpaceOnUse" x1="-167.862" x2="461.069" xlink:href="#lg3"
                    y1="747.822" y2="118.891"/>
    <g>
        <circle cx="256" cy="256" fill="url(#SVGID_1_)" r="256"/>
        <circle cx="256" cy="256" fill="url(#SVGID_2_)" r="256"/>
        <path d="m404.838 316.693c-99.228 1.078-198.456 1.076-297.684-.005-1.079-40.459-1.079-80.917 0-121.376 99.228-1.081 198.456-1.083 297.684-.005 1.077 40.462 1.077 80.924 0 121.386z"
              fill="url(#SVGID_3_)"/>
        <path d="m404.838 316.693c-99.228 1.078-198.456 1.076-297.684-.005-1.079-40.459-1.079-80.917 0-121.376 99.228-1.081 198.456-1.083 297.684-.005 1.077 40.462 1.077 80.924 0 121.386z"
              fill="url(#SVGID_4_)"/>
        <path d="m85.048 339.076c.535 12.587 1.192 25.174 1.97 37.762.26 4.17 3.842 7.643 7.982 7.752 22.5.586 45 1.049 67.5 1.389-.919-25.486-1.567-50.972-1.946-76.458-25.367 10.038-50.571 19.926-75.506 29.555z"
              fill="url(#SVGID_5_)"/>
        <path d="m85.048 172.924c.535-12.587 1.192-25.174 1.97-37.762.26-4.17 3.842-7.643 7.982-7.752 22.5-.586 45-1.049 67.5-1.389-.919 25.486-1.567 50.972-1.946 76.458-25.367-10.038-50.571-19.925-75.506-29.555z"
              fill="url(#SVGID_6_)"/>
        <path d="m427.376 172.924c-.535-12.587-1.192-25.174-1.97-37.762-.26-4.17-3.842-7.643-7.982-7.752-12.5-.325-25-.613-37.5-.862 1.213 25.383 2.069 50.765 2.568 76.148 15.112-10.029 30.094-19.966 44.884-29.772z"
              fill="url(#SVGID_7_)"/>
        <path d="m427.376 339.076c-.535 12.587-1.192 25.174-1.97 37.762-.26 4.17-3.842 7.643-7.982 7.752-12.5.325-25 .613-37.5.862 1.213-25.383 2.069-50.765 2.568-76.148 15.112 10.03 30.094 19.967 44.884 29.772z"
              fill="url(#SVGID_8_)"/>
        <path d="m153.179 324.75c.368 17.824.878 35.648 1.532 53.472.157 4.218 3.649 7.694 7.789 7.757 72.475 1.097 144.949.921 217.424-.527 4.14-.084 7.672-3.561 7.875-7.76.848-17.747 1.51-35.494 1.986-53.24-78.869.869-157.737.968-236.606.298z"
              fill="url(#SVGID_9_)"/>
        <path d="m387.798 134.308c-.203-4.199-3.735-7.676-7.875-7.76-72.475-1.447-144.949-1.623-217.424-.527-4.14.063-7.632 3.539-7.789 7.757-.841 22.917-1.445 45.833-1.812 68.75 79.083-.521 158.166-.444 237.249.232-.476-22.817-1.259-45.635-2.349-68.452z"
              fill="url(#SVGID_10_)"/>
        <path d="m137.457 301.74c-8.462-.058-15.453-6.92-15.555-15.317-.242-20.282-.242-40.564 0-60.846.103-8.397 7.094-15.258 15.555-15.317 8.463-.058 15.227 6.745 15.153 15.185 10.318-8.951 20.647-17.929 30.956-26.92-10.094-8.89-20.116-17.745-30.037-26.552-22.827.238-45.654.555-68.481.952-.107 2.517-.209 5.035-.306 7.552-.319 8.347-7.367 15.195-15.817 15.305-8.405.121-15.544 6.974-15.773 15.218-.825 30-.825 60 0 90 .23 8.244 7.368 15.098 15.773 15.218 8.451.111 15.499 6.958 15.817 15.305.097 2.517.199 5.035.306 7.552 22.827.397 45.654.714 68.481.952 9.921-8.806 19.944-17.662 30.037-26.552-10.309-8.991-20.638-17.97-30.956-26.92.074 8.441-6.69 15.244-15.153 15.185z"
              fill="url(#SVGID_11_)"/>
        <path d="m271.283 291.231c-4.69 2.048-9.851 3.206-15.288 3.206-14.621 0-27.354-8.225-33.86-20.289-.912-1.693-2.64-2.786-4.562-2.787-10.093-.007-20.187-.017-30.28-.029-2.059-.003-3.871 1.243-4.703 3.116-1.188 2.674-3.87 4.533-6.998 4.527-3.128-.007-5.83-1.876-7.041-4.551-.848-1.873-2.669-3.122-4.727-3.125-2.066-.003-4.132-.007-6.197-.011-2.83-.005-5.113 2.271-5.096 5.083.13 21.219.462 42.438.997 63.657 78.613.819 157.227.698 235.84-.365-38.869-15.735-78.369-32.017-118.085-48.432z"
              fill="url(#SVGID_12_)"/>
        <path d="m221.971 171.497c-22.814.079-45.628.238-68.442.476-.535 21.219-.867 42.438-.997 63.657-.017 2.812 2.267 5.088 5.096 5.083 2.066-.004 4.132-.007 6.197-.011 2.059-.003 3.879-1.252 4.727-3.125 1.211-2.674 3.913-4.544 7.041-4.551s5.809 1.852 6.998 4.527c.832 1.873 2.644 3.119 4.703 3.116 10.094-.013 20.187-.022 30.281-.029 1.86-.001 3.604-.995 4.482-2.637 2.258-4.228 5.29-7.981 8.891-11.089-3.058-18.48-6.063-36.952-8.977-55.417z"
              fill="url(#SVGID_13_)"/>
        <path d="m443.715 195.787c-8.528-.229-15.71-6.82-16.03-15.24-.098-2.541-.201-5.082-.309-7.622-68.468-1.19-136.936-1.665-205.404-1.427-.166 19.42 2.997 38.054 8.975 55.416 6.737-5.814 15.478-9.351 25.049-9.35 14.621 0 27.354 8.225 33.859 20.288.912 1.693 2.64 2.786 4.562 2.787 10.094.007 20.187.017 30.281.029 2.059.002 3.871-1.243 4.703-3.116 1.188-2.674 3.87-4.534 6.998-4.527s5.83 1.877 7.041 4.551c.848 1.874 2.668 3.122 4.727 3.125 2.066.003 4.132.007 6.197.011 2.829.005 5.113-2.271 5.096-5.083-.02-3.251-.044-6.503-.074-9.754-.071-8.229 6.174-15.275 14.409-15.605 8.791-.352 16.19 6.664 16.295 15.305.24 20.14.241 40.28.005 60.421-.097 8.188-6.571 15.282-14.818 15.725-8.806.473-15.971-6.477-15.895-15.164.031-3.395.057-6.79.077-10.186.017-2.812-2.267-5.088-5.096-5.083-2.066.004-4.132.007-6.197.011-2.059.003-3.879 1.252-4.727 3.125-1.211 2.675-3.913 4.544-7.041 4.551s-5.809-1.853-6.998-4.527c-.832-1.872-2.644-3.118-4.703-3.116-10.094.013-20.188.022-30.283.029-1.919.002-3.646 1.091-4.557 2.781-4.086 7.578-10.646 13.626-18.574 17.088 30.557 30.493 71.982 49.098 118.086 48.432 12.669-.171 25.337-.367 38.006-.587.108-2.541.211-5.082.309-7.622.321-8.419 7.503-15.011 16.03-15.24 8.311-.234 15.33-7.04 15.558-15.214.825-30 .825-60 0-90-.227-8.172-7.246-14.979-15.557-15.212z"
              fill="url(#SVGID_14_)"/>
    </g>
</svg>